<svg width="18" height="18" viewBox="0 0 18 18" fill="none" xmlns="http://www.w3.org/2000/svg">
<path d="M0 15.2519C0 10.589 0 5.92606 0 1.26316C0.0140873 1.2209 0.0281743 1.17394 0.0422616 1.13168C0.169047 0.676191 0.441402 0.338096 0.873413 0.136178C1.0002 0.0798292 1.13638 0.0422619 1.26316 0C4.19332 0 7.12348 0 10.0489 0C10.0912 0.0140873 10.1382 0.0281755 10.1804 0.037567C11.1524 0.220702 11.9319 1.08003 11.9789 2.06614C12.0118 2.72824 11.993 3.39034 11.9977 4.05245C11.9977 4.24028 12.0024 4.42811 11.9836 4.61594C11.9507 4.93995 11.6831 5.19822 11.3638 5.24517C10.8613 5.31091 10.495 4.97751 10.4903 4.4375C10.4856 3.73313 10.4903 3.03347 10.4903 2.3291C10.4856 1.80787 10.1898 1.51204 9.67328 1.51204C8.63082 1.51204 7.58836 1.51204 6.5459 1.51204C6.49894 1.51204 6.44729 1.51673 6.39564 1.52143C6.57407 1.62474 6.75721 1.69987 6.91217 1.82196C7.33948 2.15066 7.50384 2.59676 7.50384 3.12738C7.49914 6.75251 7.50384 10.3776 7.50384 14.0028C7.50384 14.0826 7.50853 14.1577 7.51323 14.247C8.30212 14.247 9.06753 14.2563 9.83294 14.2423C10.0818 14.2376 10.2837 14.0967 10.3917 13.8713C10.4575 13.7304 10.4903 13.5567 10.4903 13.397C10.4997 12.4438 10.4903 11.4858 10.495 10.5326C10.4997 10.0865 10.8144 9.7625 11.2276 9.74841C11.6408 9.73902 11.9883 10.063 11.993 10.4997C12.0024 11.561 12.0212 12.6222 11.9789 13.6788C11.9366 14.8292 10.9271 15.7449 9.77189 15.7496C9.08161 15.7543 8.39134 15.7496 7.69636 15.7496C7.63532 15.7496 7.57427 15.7496 7.49444 15.7496C7.49444 16.0314 7.50853 16.2896 7.49444 16.5432C7.4334 17.595 6.48016 18.2431 5.47996 17.9144C4.01019 17.4307 2.54511 16.9376 1.07533 16.4446C0.525926 16.2614 0.169048 15.8858 0.0328709 15.3129C0.0281752 15.2894 0.00939153 15.2706 0 15.2519Z" fill="#011A2E"/>
<path d="M13.4958 8.25526C13.416 8.25526 13.355 8.25526 13.2892 8.25526C12.3689 8.25526 11.4485 8.25526 10.5328 8.25526C10.2135 8.25526 9.96463 8.11909 9.81906 7.82795C9.68288 7.5509 9.71575 7.27854 9.90358 7.03437C10.0492 6.84184 10.2511 6.74792 10.4952 6.74792C11.4203 6.74792 12.3454 6.74792 13.2704 6.74792C13.3362 6.74792 13.3972 6.74792 13.4911 6.74792C13.4911 6.68218 13.4911 6.62114 13.4911 6.56009C13.4911 5.8886 13.4911 5.21241 13.4911 4.54091C13.4911 4.20282 13.6367 3.95394 13.9419 3.81307C14.2284 3.67689 14.5477 3.74733 14.7966 3.99151C15.7827 4.97762 16.7688 5.95903 17.7549 6.94984C18.0789 7.27855 18.0836 7.71995 17.7596 8.04395C16.7735 9.03476 15.7827 10.0256 14.7919 11.0117C14.5524 11.2465 14.2659 11.3169 13.956 11.1854C13.6461 11.0539 13.4958 10.8051 13.4958 10.4623C13.4958 9.79548 13.4958 9.12868 13.4958 8.45718C13.4958 8.39614 13.4958 8.33509 13.4958 8.25526Z" fill="#011A2E"/>
</svg>
