<svg width="177" height="183" viewBox="0 0 177 183" fill="none" xmlns="http://www.w3.org/2000/svg">
<path d="M9.88964 177.496C10.5778 177.98 11.6909 178.464 13.2291 178.948C14.8078 179.391 16.5686 179.613 18.5116 179.613C20.4546 179.613 22.0737 179.029 23.369 177.859C24.6643 176.69 25.312 175.118 25.312 173.142C25.312 170.078 23.5714 167.578 20.0903 165.643C19.1997 165.199 17.8235 164.594 15.9614 163.828C14.0994 163.022 12.7839 162.437 12.0148 162.075C11.2457 161.671 10.3349 161.127 9.28246 160.442C8.2705 159.716 7.48116 158.99 6.91446 158.264C5.49771 156.531 4.78933 154.414 4.78933 151.914C4.78933 148.245 6.14537 145.342 8.85744 143.205C11.61 141.068 15.1721 140 19.5438 140C22.863 140 25.9799 140.544 28.8944 141.633C29.0158 142.601 29.0765 143.891 29.0765 145.504C29.0765 147.076 28.8539 149.193 28.4086 151.854L24.887 152.277C24.4417 147.721 23.8953 145.181 23.2476 144.657C22.2761 143.81 20.495 143.387 17.9044 143.387C15.3543 143.387 13.3708 143.911 11.9541 144.959C10.5373 145.967 9.82892 147.459 9.82892 149.435C9.82892 150.564 10.0516 151.571 10.4968 152.459C10.9421 153.346 11.7517 154.172 12.9255 154.938C14.0994 155.704 15.0304 156.248 15.7186 156.571C16.7305 157.095 18.1473 157.74 19.9688 158.506C21.7904 159.272 23.2071 159.938 24.2191 160.502C25.231 161.067 26.324 161.812 27.4979 162.74C29.7647 164.635 30.8981 167.376 30.8981 170.965C30.8981 174.553 29.6027 177.456 27.0121 179.674C24.462 181.891 20.9606 183 16.5079 183C14.1197 183 11.7314 182.718 9.34318 182.153C6.99542 181.549 5.27508 180.964 4.18215 180.399C4.06072 179.916 4 178.767 4 176.952C4 175.138 4.24287 172.94 4.72862 170.36L8.18954 170.179C8.51337 173.082 8.77648 174.956 8.97887 175.803C9.22174 176.65 9.52533 177.214 9.88964 177.496Z" fill="white"/>
<path d="M42.7039 180.097C45.2541 179.694 46.8125 179.291 47.3792 178.887C47.9459 178.444 48.2292 177.597 48.2292 176.347V143.689C43.0075 143.77 40.2145 143.891 39.8502 144.052C39.4859 144.213 39.2025 144.395 39.0001 144.596C38.5144 145.241 37.9274 147.519 37.2393 151.43L34.1427 151.188C34.1022 150.584 34.082 149.414 34.082 147.681C34.082 145.907 34.2641 143.528 34.6284 140.544H67.7197C68.084 143.528 68.2662 145.907 68.2662 147.681C68.2662 149.414 68.2459 150.584 68.2054 151.188L65.1088 151.43C64.4207 147.519 63.8135 145.241 63.2873 144.596C63.1254 144.395 62.8623 144.213 62.498 144.052C62.1337 143.891 59.3406 143.77 54.1189 143.689V177.799C54.1189 178.726 54.5237 179.25 55.3332 179.371L60.0085 180.097L59.7656 182.456H43.0682L42.7039 180.097Z" fill="white"/>
<path d="M69.5502 182.456L69.1252 180.037C70.6634 179.633 71.5944 179.311 71.9183 179.069C72.2826 178.827 72.6266 178.283 72.9505 177.436L86.5513 140H91.5909L105.495 178.404C105.698 179.008 106.892 179.512 109.078 179.916L108.835 182.456H94.6875L94.3232 180.037C97.1567 179.472 98.5734 178.807 98.5734 178.041C98.5734 177.718 98.4925 177.295 98.3306 176.771L95.659 168.909H79.933L76.8364 177.496C76.6745 177.98 76.5935 178.323 76.5935 178.525C76.5935 178.686 76.715 178.787 76.9578 178.827L81.2688 179.976L81.0259 182.456H69.5502ZM81.0867 165.703H94.6268L88.6764 148.709C88.3931 147.862 88.2514 147.278 88.2514 146.955H87.6442L81.0867 165.703Z" fill="white"/>
<path d="M112.412 182.456L112.048 180.097C114.193 179.734 115.489 179.331 115.934 178.887C116.42 178.444 116.663 177.597 116.663 176.347V146.653C116.663 145.403 116.42 144.556 115.934 144.113C115.489 143.669 114.193 143.266 112.048 142.903L112.412 140.544H127.288L127.531 142.903L123.767 143.629C122.957 143.79 122.552 144.314 122.552 145.201V177.799C122.552 178.686 122.957 179.21 123.767 179.371L127.531 180.097L127.288 182.456H112.412Z" fill="white"/>
<path d="M132.869 182.456L132.505 180.097C134.65 179.734 135.945 179.331 136.391 178.887C136.876 178.444 137.119 177.597 137.119 176.347V146.653C137.119 145.403 136.876 144.556 136.391 144.113C135.945 143.669 134.65 143.266 132.505 142.903L132.869 140.544H151.874C155.355 140.544 158.371 141.109 160.921 142.238C163.471 143.326 165.454 144.838 166.871 146.774C169.624 150.483 171 154.958 171 160.2C171 165.965 169.462 170.985 166.385 175.259C164.847 177.436 162.702 179.19 159.949 180.52C157.237 181.811 154.1 182.456 150.538 182.456H132.869ZM143.009 176.831C143.009 177.718 143.434 178.242 144.284 178.404C147.118 178.968 149.263 179.25 150.72 179.25C155.213 179.25 158.593 177.658 160.86 174.473C163.127 171.287 164.26 167.034 164.26 161.712C164.26 158.365 163.815 155.462 162.924 153.003C162.074 150.543 160.921 148.669 159.464 147.378C156.711 144.959 153.716 143.75 150.477 143.75H143.009V176.831Z" fill="white"/>
<path d="M88.8959 115.216C89.0301 115.522 89.1644 115.828 89.3657 116.304C89.5671 115.896 89.7014 115.658 89.8021 115.42C94.9708 104.262 101.616 94.1594 111.115 86.2335C119.741 79.056 129.608 74.838 140.718 73.4773C147.229 72.6609 153.673 72.763 159.983 74.8039C166.696 76.981 172.2 80.8589 176.127 86.9139C176.295 87.186 176.463 87.4921 176.497 87.9003C176.262 87.7983 176.027 87.6962 175.825 87.5602C166.662 81.8454 156.761 79.09 146.021 79.5323C136.556 79.9064 127.729 82.6618 119.439 87.288C107.993 93.6832 98.9313 102.698 91.4131 113.413C90.9768 114.025 90.574 114.637 90.1713 115.216C90.2384 115.284 90.272 115.318 90.3391 115.386C90.574 115.114 90.7754 114.876 91.0104 114.603C98.8978 106.201 107.557 98.8197 117.593 93.1729C125.144 88.9208 133.133 85.8593 141.758 84.7368C153.338 83.2401 164.179 85.5192 174.348 91.268C174.919 91.5741 175.456 91.9143 176.027 92.2545C176.06 92.2885 176.094 92.3565 176.228 92.5606C175.322 92.3905 174.55 92.2545 173.778 92.0844C166.897 90.7918 159.95 90.5536 153.002 91.0979C130.313 92.8668 110.209 101.575 91.7487 114.637C91.6145 114.739 91.4467 114.842 91.3124 114.978C91.2789 115.012 91.2453 115.08 91.1782 115.182C117.895 100.146 146.323 93.8192 177 97.2209C176.597 97.8672 176.362 98.2414 176.127 98.6156C174.953 100.418 173.744 102.221 172.603 104.092C172.234 104.671 171.865 104.841 171.194 104.841C165.991 104.841 160.789 104.705 155.587 104.977C144.544 105.589 133.737 107.766 123.131 110.964C111.618 114.433 100.542 118.958 90.037 124.876C89.7349 125.046 89.1308 125.046 88.8287 124.842C72.6847 115.862 55.5337 109.807 37.4095 106.609C27.6089 104.875 17.7077 104.228 7.77292 104.807C7.06808 104.841 6.66532 104.637 6.29613 104.024C5.08784 102.085 3.84599 100.18 2.60414 98.2414C2.43633 98.0033 2.30207 97.7312 2 97.1869C32.6099 93.7852 61.0046 100.112 87.8218 114.944C87.6876 114.876 87.5533 114.841 87.4526 114.773C75.1684 106.031 62.0115 99.1939 47.5456 95.0098C37.3088 92.0504 26.9041 90.5537 16.2309 90.8938C11.8341 91.0299 7.50441 91.4721 3.20828 92.4926C3.10759 92.5266 2.97334 92.4926 2.77196 92.3905C2.97334 92.2545 3.17472 92.1184 3.3761 91.9823C13.3109 86.0294 23.9841 83.4102 35.4964 84.5327C44.1893 85.3831 52.2781 88.2405 59.9306 92.3905C70.5031 98.1053 79.5988 105.725 87.8218 114.501C88.0903 114.773 88.3253 115.046 88.5938 115.284C88.5602 115.352 88.7616 115.25 88.8959 115.216Z" fill="white"/>
<path d="M86 114.985C85.767 114.748 85.4675 114.578 85.2678 114.307C78.9776 105.022 71.4559 96.9573 62.2701 90.6205C54.3824 85.1986 45.8289 81.4711 36.3769 80.0139C23.8963 78.1163 12.2144 80.4884 1.36455 87.0963C0.965167 87.3335 0.56579 87.6046 0.166409 87.8418C0.0998452 87.774 0.0332817 87.7401 0 87.6723C0.332817 87.1302 0.665632 86.5541 1.03173 86.0119C4.89241 80.4545 10.1509 76.8286 16.4745 74.7954C22.1656 72.9655 27.9567 72.6945 33.8808 73.2705C40.3375 73.9144 46.5611 75.4731 52.4853 78.218C60.7059 82.0133 67.5619 87.6384 73.3862 94.6191C78.5116 100.786 82.572 107.699 86 114.985C86 115.019 86 114.985 86 114.985Z" fill="white"/>
<path d="M116.484 7.49661C116.546 8.14141 116.577 8.54057 116.639 8.93973C116.701 9.33889 116.794 9.70734 116.886 10.1372C114.475 10.782 112.125 11.3961 109.899 11.9795C111.538 14.1595 113.269 16.1553 114.691 18.366C117.226 22.2962 118.587 26.6562 118.989 31.3233C119.051 31.9681 118.865 32.3673 118.278 32.7357C109.219 38.631 99.6344 43.5744 89.71 47.8731C89.308 48.0573 88.6897 48.0266 88.2878 47.8731C78.5179 43.6359 69.119 38.7538 60.153 33.0428C59.1636 32.398 58.8854 31.7532 59.0399 30.6785C59.9675 23.3402 63.0592 17.0457 68.5316 12.0102C74.9933 6.0535 82.7226 3.47432 91.4723 4.08841C96.8828 4.45686 101.83 6.29913 106.251 9.431C106.869 9.89156 107.395 9.95297 108.168 9.73804C110.888 8.93972 113.64 8.23352 116.484 7.49661Z" fill="white"/>
<path d="M106.987 57.7488C107.794 57.0373 108.476 56.4494 109.159 55.8307C103.481 53.8197 97.8644 51.8397 92 49.7359C92.5585 49.4265 92.8067 49.2408 93.055 49.148C102.581 44.8476 111.796 39.9285 120.515 34.174C120.794 33.9883 121.384 33.9265 121.632 34.1121C127.279 37.9794 132.74 42.0632 137.178 47.3536C138.822 49.2718 140.218 51.3446 140.808 53.8816C141.49 56.8516 140.342 59.2958 137.55 60.657C134.975 61.9255 132.213 62.0492 129.42 61.9874C122.408 61.8636 115.675 60.2239 109.004 58.3676C108.414 58.182 107.794 57.9654 106.987 57.7488ZM109.376 55.7379C111.889 56.3876 114.154 57.0063 116.419 57.5323C121.26 58.646 126.162 59.5742 131.158 59.2957C132.958 59.2029 134.788 58.7698 136.464 58.182C138.17 57.5632 138.636 56.171 138.201 54.4384C137.674 52.3347 136.371 50.6331 134.975 49.0243C131.81 45.3426 128.024 42.3416 124.115 39.4953C122.501 38.3197 120.857 37.2059 119.057 35.9684C118.56 43.9195 115.116 50.2618 109.376 55.7379Z" fill="white"/>
<path d="M43.9989 58.4877C43.9989 59.3655 43.9989 60.1827 43.9989 61C39.3152 60.5157 36.8517 56.7623 38.5244 52.5247C39.2239 50.7691 40.258 49.074 41.4745 47.5908C45.9453 42.0516 51.6631 37.9047 57.32 34C62.0949 36.7848 66.6874 39.63 71.4319 42.2029C76.1156 44.7455 80.9818 47.046 86 49.5583C80.3431 51.5561 74.8382 53.5235 69.2725 55.491C69.9416 56.0661 70.6107 56.6715 71.4623 57.398C68.6034 58.1547 65.8966 58.9114 63.129 59.6379C62.9465 58.7298 62.7945 57.9428 62.612 57.065C64.6801 56.5202 66.7178 55.9451 68.938 55.3699C68.6643 55.037 68.4818 54.7948 68.2689 54.583C63.6764 49.8913 60.848 44.352 59.966 37.8139C59.7531 36.2096 59.084 35.9069 57.7458 36.8453C52.8796 40.2657 48.0743 43.7769 44.2422 48.3778C42.9648 49.9215 41.8395 51.6771 41.0183 53.4933C40.0147 55.6727 40.8359 57.1558 43.056 58.0639C43.3298 58.2455 43.6339 58.3666 43.9989 58.4877Z" fill="white"/>
<path d="M71 57.8749C76.8235 55.5953 82.6782 53.3473 88.5017 51.0677C88.782 50.9727 89.1557 50.9727 89.436 51.0994C95.1972 53.2523 100.958 55.4053 106.72 57.5583C106.813 57.5899 106.907 57.6533 107 57.7166C97.8443 65.6002 81.6505 66.5184 71 57.8749Z" fill="white"/>
<path d="M68 9.29859C67.3383 9.95996 66.8571 10.5913 66.2555 11.0422C65.9848 11.2526 65.4735 11.2827 65.1126 11.1925C60.2701 9.99002 55.3976 8.84765 50.3747 8.7274C48.0587 8.66728 45.6826 8.87772 43.4569 9.38877C40.6597 10.0501 39.8175 11.9441 41.1108 14.4693C42.1635 16.5135 43.5772 18.4375 45.1111 20.1811C48.2091 23.6983 51.9086 26.5843 55.7585 29.2899C56.6909 29.9513 57.2925 30.5525 56.9616 31.755C56.8413 32.1458 56.9014 32.5667 56.8714 32.9575C56.6909 32.9875 56.6007 33.0176 56.5706 32.9875C51.0664 29.2298 45.7427 25.1714 41.4718 19.9706C39.998 18.197 38.7347 16.273 38.1933 13.9582C37.5316 11.1624 38.5843 8.78753 41.1108 7.43473C43.0358 6.41262 45.1412 6.08193 47.2767 6.02181C52.6605 5.84144 57.9241 6.80343 63.1575 8.03598C64.7516 8.42678 66.3157 8.84766 68 9.29859Z" fill="white"/>
<path d="M133 7C133 10.899 129.845 14.0305 125.985 13.9998C122.156 13.9691 119.031 10.8376 119 7.0307C118.97 3.19311 122.156 0.000228245 126.015 0.000228245C129.937 -0.0304725 133 3.0396 133 7Z" fill="white"/>
<path d="M53.0458 66.9998C49.1247 67.0304 46.0306 63.9364 46 60.0152C46 56.1247 49.1247 53 53.0152 53C56.8751 53 59.9691 56.094 59.9998 59.9233C60.0304 63.8445 56.9364 66.9998 53.0458 66.9998Z" fill="white"/>
<path d="M135.473 9.47761C135.536 8.61194 135.599 7.80597 135.662 7C138.948 7.41791 141.696 10.2537 140.843 13.8358C140.211 16.5522 138.537 18.7612 136.641 20.8209C132.282 25.597 127.006 29.3881 121.541 32.9403C121.478 32.9701 121.383 32.9701 121.194 33C121.13 32.1343 120.973 31.2687 121.004 30.4328C121.004 30.194 121.446 29.9254 121.731 29.7164C125.395 26.8507 129.123 24.0448 132.661 21.0597C134.114 19.8358 135.251 18.2537 136.483 16.791C136.926 16.2836 137.242 15.6567 137.526 15.0597C138.79 12.4925 138.695 10.7612 135.473 9.47761Z" fill="white"/>
</svg>
