<svg width="18" height="15" viewBox="0 0 18 15" fill="none" xmlns="http://www.w3.org/2000/svg">
<path d="M0.0612001 1.3338L8.0487 9.3222C8.285 9.55866 8.60062 9.69904 8.93447 9.71616C9.26832 9.73329 9.59665 9.62594 9.8559 9.4149L9.9585 9.3222L17.9406 1.3392C17.9667 1.4382 17.9838 1.539 17.9928 1.6425L18 1.8V12.6C18.0001 13.0541 17.8286 13.4915 17.5199 13.8245C17.2111 14.1575 16.7878 14.3614 16.335 14.3955L16.2 14.4H1.8C1.34588 14.4001 0.90849 14.2286 0.575507 13.9199C0.242524 13.6111 0.038559 13.1878 0.0045001 12.735L0 12.6V1.8C0 1.692 0.00899997 1.5876 0.027 1.485L0.0612001 1.3338ZM16.2 0C16.3089 0 16.416 0.00900012 16.5195 0.0279001L16.6725 0.0630002L9.0045 7.731L1.3338 0.0611999C1.4328 0.0341999 1.5354 0.0161999 1.6398 0.00719991L1.8 0H16.2Z" fill="#011A2E"/>
</svg>
