<svg width="22" height="26" viewBox="0 0 22 26" fill="none" xmlns="http://www.w3.org/2000/svg">
<path d="M22 21.0476V22.2857H0V21.0476L2.44444 18.5714V11.1429C2.44444 7.30476 4.92556 3.92476 8.55556 2.83524V2.47619C8.55556 1.81946 8.8131 1.18964 9.27152 0.725259C9.72994 0.260884 10.3517 0 11 0C11.6483 0 12.2701 0.260884 12.7285 0.725259C13.1869 1.18964 13.4444 1.81946 13.4444 2.47619V2.83524C17.0744 3.92476 19.5556 7.30476 19.5556 11.1429V18.5714L22 21.0476ZM13.4444 23.5238C13.4444 24.1805 13.1869 24.8104 12.7285 25.2747C12.2701 25.7391 11.6483 26 11 26C10.3517 26 9.72994 25.7391 9.27152 25.2747C8.8131 24.8104 8.55556 24.1805 8.55556 23.5238" fill="white"/>
</svg>
