<svg width="17" height="14" viewBox="0 0 17 14" fill="none" xmlns="http://www.w3.org/2000/svg">
<path d="M4.72403 8.10485C4.57955 7.71875 4.50625 7.30967 4.5077 6.89743C4.5077 5.98211 4.87131 5.10428 5.51854 4.45705C6.16576 3.80982 7.04359 3.44621 7.95891 3.44621C8.36607 3.44668 8.76987 3.51995 9.15125 3.66254L8.34127 4.49767C8.21814 4.47797 8.09367 4.46788 7.96898 4.46749C7.32178 4.46614 6.70034 4.72092 6.24035 5.17619C5.78036 5.63147 5.5192 6.25025 5.51388 6.89743C5.5143 7.02212 5.52439 7.14659 5.54407 7.26972L4.72403 8.10485Z" fill="#A3A3A3"/>
<path d="M0.145827 6.66095C1.84125 3.52668 4.81453 1.63002 8.10476 1.63002C9.00059 1.63212 9.89041 1.77646 10.741 2.05765L9.93099 2.87266C9.33439 2.71848 8.72095 2.63905 8.10476 2.63621C5.27235 2.63621 2.69651 4.21592 1.16208 6.87728C1.72496 7.86465 2.47115 8.7355 3.36059 9.44306L2.6462 10.1574C1.61683 9.32701 0.761933 8.30113 0.130735 7.13889L-6.96182e-05 6.89741L0.145827 6.66095Z" fill="#A3A3A3"/>
<path d="M14.9473 0.749609L12.7035 2.9934C14.1218 3.90657 15.2809 5.16967 16.0692 6.66095L16.2 6.8974L16.0692 7.13889C14.3738 10.2732 11.4005 12.1698 8.11028 12.1698C6.82606 12.1696 5.55851 11.8789 4.40248 11.3196L1.88702 13.8351L1.00661 13.0804L14.087 0L14.9473 0.749609ZM10.0422 5.65476L6.69659 9.00033C7.0746 9.23431 7.50976 9.35964 7.95432 9.36256C8.27734 9.36257 8.59717 9.2987 8.89542 9.17463C9.19366 9.05056 9.46443 8.86874 9.69213 8.63962C9.91984 8.41051 10.1 8.13864 10.2222 7.83964C10.3445 7.54064 10.4064 7.22042 10.4044 6.8974C10.3987 6.45798 10.2735 6.0284 10.0422 5.65476ZM10.7716 4.92528C11.2423 5.58906 11.4629 6.39798 11.3944 7.20881C11.3259 8.01964 10.9727 8.78008 10.3973 9.35546C9.8219 9.93085 9.06147 10.2841 8.25064 10.3526C7.43981 10.4211 6.63088 10.2005 5.9671 9.72982L5.16216 10.5348C6.09399 10.9331 7.09688 11.1385 8.11028 11.1385C10.9427 11.1385 13.5185 9.55877 15.053 6.8974C14.3166 5.5935 13.2561 4.50178 11.974 3.72792L10.7716 4.92528Z" fill="#A3A3A3"/>
</svg>
