<svg width="9" height="16" viewBox="0 0 9 16" fill="none" xmlns="http://www.w3.org/2000/svg">
<path d="M1.78341 15.6834L8.77189 8.59103C8.85484 8.5066 8.91346 8.41513 8.94774 8.31662C8.98258 8.21812 9 8.11258 9 8C9 7.88742 8.98258 7.78188 8.94774 7.68338C8.91346 7.58487 8.85484 7.4934 8.77189 7.40897L1.78341 0.295514C1.58986 0.0985048 1.34793 0 1.0576 0C0.767282 0 0.518434 0.105541 0.31106 0.316623C0.103687 0.527704 0 0.773967 0 1.05541C0 1.33685 0.103687 1.58311 0.31106 1.7942L6.40783 8L0.31106 14.2058C0.117512 14.4028 0.0207376 14.6454 0.0207376 14.9336C0.0207376 15.2224 0.124424 15.4723 0.331798 15.6834C0.53917 15.8945 0.781106 16 1.0576 16C1.3341 16 1.57604 15.8945 1.78341 15.6834Z" fill="black"/>
</svg>
