<svg width="34" height="34" viewBox="0 0 34 34" fill="none" xmlns="http://www.w3.org/2000/svg">
<circle cx="17" cy="17" r="17" fill="#254D71"/>
<path d="M9.82706 9.06036C9.7314 9.01252 9.62424 8.99248 9.51775 9.00253C9.41127 9.01258 9.30974 9.05231 9.22472 9.11721C9.1397 9.1821 9.0746 9.26956 9.03683 9.36962C8.99905 9.46969 8.99012 9.57834 9.01104 9.68323L10.6145 15.2262C10.6444 15.3295 10.7029 15.4223 10.7831 15.4939C10.8634 15.5654 10.9622 15.6129 11.0682 15.6308L17.5713 16.72C17.8776 16.7806 17.8776 17.2194 17.5713 17.28L11.0682 18.3692C10.9622 18.3871 10.8634 18.4346 10.7831 18.5061C10.7029 18.5777 10.6444 18.6705 10.6145 18.7738L9.01104 24.3168C8.99012 24.4217 8.99905 24.5303 9.03683 24.6304C9.0746 24.7304 9.1397 24.8179 9.22472 24.8828C9.30974 24.9477 9.41127 24.9874 9.51775 24.9975C9.62424 25.0075 9.7314 24.9875 9.82706 24.9396L24.6846 17.5109C24.7794 17.4634 24.8591 17.3904 24.9148 17.3002C24.9705 17.21 25 17.106 25 17C25 16.894 24.9705 16.79 24.9148 16.6998C24.8591 16.6096 24.7794 16.5366 24.6846 16.4891L9.82706 9.06036Z" fill="white"/>
</svg>
